<svg version="1.1" id="Layer_1" xmlns="http://www.w3.org/2000/svg" xmlns:xlink="http://www.w3.org/1999/xlink" x="0px" y="0px"
	 width="100%" viewBox="0 0 197 197" enable-background="new 0 0 197 197" xml:space="preserve">
<path fill="#FEFEFE" opacity="1.000000" stroke="none" 
	d="
M131.000000,198.000000 
	C87.360741,198.000000 44.221474,198.000000 1.041106,198.000000 
	C1.041106,132.402451 1.041106,66.804863 1.041106,1.103639 
	C66.555740,1.103639 132.111710,1.103639 197.833832,1.103639 
	C197.833832,66.666321 197.833832,132.333130 197.833832,198.000000 
	C175.805161,198.000000 153.652573,198.000000 131.000000,198.000000 
M88.891357,112.730965 
	C88.104256,112.668091 87.317146,112.605217 85.888855,112.786789 
	C81.818626,115.556404 77.748390,118.326019 72.959099,121.257690 
	C69.763199,123.859772 66.590530,126.491074 63.364906,129.055771 
	C60.076035,131.670746 56.439381,133.109497 52.246368,131.554962 
	C48.062878,130.003937 45.984722,126.823349 45.722057,122.416267 
	C45.577957,119.998497 45.459270,117.579201 45.337715,115.320221 
	C37.104393,115.320221 29.377594,115.320221 21.715937,115.320221 
	C19.287708,137.085556 36.325768,155.195328 57.588619,153.758820 
	C65.102570,153.251175 72.282158,151.621933 77.662178,144.990891 
	C77.953964,144.807220 78.089943,144.543274 78.709625,143.922775 
	C80.804054,141.192596 82.898491,138.462402 85.630730,135.446152 
	C86.401474,132.632492 87.172211,129.818817 88.226891,126.410324 
	C88.257057,125.763481 88.287224,125.116638 88.708672,123.652725 
	C88.549133,121.568161 88.389603,119.483604 88.179459,117.419151 
	C88.179459,117.419151 88.165207,117.362160 88.752213,117.005898 
	C88.737579,116.348137 88.722946,115.690384 88.877167,114.435387 
	C88.819069,114.031036 88.760979,113.626686 88.891357,112.730965 
M134.061432,93.500000 
	C134.061432,84.930229 134.061432,76.360466 134.061432,67.576248 
	C141.695740,67.576248 148.950745,69.031342 155.222260,67.170952 
	C161.617493,65.273865 167.045654,60.117218 172.899048,56.390514 
	C173.038467,56.301750 173.214279,56.267628 173.347870,56.172543 
	C178.190475,52.725700 183.030075,49.274628 188.471115,45.395668 
	C145.740662,45.395668 104.149452,45.395668 62.598984,45.395668 
	C62.598984,70.544617 62.598984,95.258438 62.598984,120.696144 
	C71.162865,115.191254 79.142906,110.220490 86.889717,104.909554 
	C88.042511,104.119240 88.553986,101.735489 88.582993,100.075294 
	C88.725647,91.911903 88.603317,83.743919 88.579094,75.577545 
	C88.571457,73.001755 88.577904,70.425919 88.577904,67.933487 
	C95.719322,67.933487 101.998756,67.933487 108.899765,67.933487 
	C108.899765,96.402534 108.899765,124.628746 108.899765,152.786499 
	C117.599670,152.786499 125.665115,152.786499 133.615280,152.786499 
	C133.823364,152.111435 134.000839,151.803711 134.001328,151.495728 
	C134.030991,132.497162 134.046204,113.498573 134.061432,93.500000 
z"/>
<path fill="#060707" opacity="1.000000" stroke="none" 
	d="
M134.062073,94.000000 
	C134.046204,113.498573 134.030991,132.497162 134.001328,151.495728 
	C134.000839,151.803711 133.823364,152.111435 133.615280,152.786499 
	C125.665115,152.786499 117.599670,152.786499 108.899765,152.786499 
	C108.899765,124.628746 108.899765,96.402534 108.899765,67.933487 
	C101.998756,67.933487 95.719322,67.933487 88.577904,67.933487 
	C88.577904,70.425919 88.571457,73.001755 88.579094,75.577545 
	C88.603317,83.743919 88.725647,91.911903 88.582993,100.075294 
	C88.553986,101.735489 88.042511,104.119240 86.889717,104.909554 
	C79.142906,110.220490 71.162865,115.191254 62.598984,120.696144 
	C62.598984,95.258438 62.598984,70.544617 62.598984,45.395668 
	C104.149452,45.395668 145.740662,45.395668 188.471115,45.395668 
	C183.030075,49.274628 178.190475,52.725700 173.347870,56.172543 
	C173.214279,56.267628 173.038467,56.301750 172.899048,56.390514 
	C167.045654,60.117218 161.617493,65.273865 155.222260,67.170952 
	C148.950745,69.031342 141.695740,67.576248 134.061432,67.576248 
	C134.061432,76.360466 134.061432,84.930229 134.062073,94.000000 
z"/>
<path fill="#7E0C0B" opacity="1.000000" stroke="none" 
	d="
M77.207436,145.084946 
	C72.282158,151.621933 65.102570,153.251175 57.588619,153.758820 
	C36.325768,155.195328 19.287708,137.085556 21.715937,115.320221 
	C29.377594,115.320221 37.104393,115.320221 45.337715,115.320221 
	C45.459270,117.579201 45.577957,119.998497 45.722057,122.416267 
	C45.984722,126.823349 48.062878,130.003937 52.246368,131.554962 
	C56.439381,133.109497 60.076035,131.670746 63.364906,129.055771 
	C66.590530,126.491074 69.763199,123.859772 73.448952,121.535187 
	C74.513779,122.568726 75.088760,123.324753 75.663734,124.080788 
	C75.110962,124.060364 74.558182,124.039940 74.005409,124.019516 
	C73.726517,125.883606 72.538162,128.599182 73.337914,129.453384 
	C75.815445,132.099609 78.561516,135.129608 82.960808,134.341736 
	C81.281456,136.456573 79.635765,138.231094 77.629349,139.936157 
	C76.197372,134.955551 71.495796,134.982513 68.112411,133.307419 
	C67.321854,132.916031 65.933060,133.507004 64.926102,133.911407 
	C64.608902,134.038803 64.395889,135.470459 64.550667,135.556320 
	C65.461105,136.061447 66.472366,136.454239 67.494919,136.660446 
	C68.059563,136.774307 68.712540,136.450134 69.325706,136.323410 
	C68.692566,137.046295 68.059433,137.769180 67.426300,138.492065 
	C70.686676,140.689697 73.947060,142.887314 77.207436,145.084946 
z"/>
<path fill="#82100F" opacity="1.000000" stroke="none" 
	d="
M82.994469,134.001419 
	C78.561516,135.129608 75.815445,132.099609 73.337914,129.453384 
	C72.538162,128.599182 73.726517,125.883606 74.005409,124.019516 
	C74.558182,124.039940 75.110962,124.060364 75.663734,124.080788 
	C75.088760,123.324753 74.513779,122.568726 73.808487,121.454163 
	C77.748390,118.326019 81.818626,115.556404 86.358170,112.813339 
	C86.827492,112.839882 87.130264,113.132004 87.148315,113.479813 
	C87.680351,114.229294 88.194336,114.630959 88.708313,115.032623 
	C88.722946,115.690384 88.737579,116.348137 88.264847,117.495285 
	C87.613205,118.572212 87.448921,119.159752 87.284630,119.747284 
	C87.530556,119.789413 87.776474,119.831543 88.022392,119.873665 
	C88.091614,119.048790 88.160843,118.223915 88.230072,117.399040 
	C88.389603,119.483604 88.549133,121.568161 88.312195,123.766487 
	C86.999947,124.313339 86.084167,124.746437 85.168388,125.179520 
	C86.093246,125.788063 87.018097,126.396614 87.942955,127.005157 
	C87.172211,129.818817 86.401474,132.632492 85.250748,135.296021 
	C84.245331,134.764404 83.619904,134.382919 82.994469,134.001419 
z"/>
<path fill="#82100F" opacity="1.000000" stroke="none" 
	d="
M77.434807,145.037918 
	C73.947060,142.887314 70.686676,140.689697 67.426300,138.492065 
	C68.059433,137.769180 68.692566,137.046295 69.325706,136.323410 
	C68.712540,136.450134 68.059563,136.774307 67.494919,136.660446 
	C66.472366,136.454239 65.461105,136.061447 64.550667,135.556320 
	C64.395889,135.470459 64.608902,134.038803 64.926102,133.911407 
	C65.933060,133.507004 67.321854,132.916031 68.112411,133.307419 
	C71.495796,134.982513 76.197372,134.955551 77.631836,140.355469 
	C78.020065,141.962509 78.045090,143.080795 78.070122,144.199081 
	C78.089943,144.543274 77.953964,144.807220 77.434807,145.037918 
z"/>
<path fill="#7A0808" opacity="1.000000" stroke="none" 
	d="
M78.389877,144.060928 
	C78.045090,143.080795 78.020065,141.962509 77.992554,140.424927 
	C79.635765,138.231094 81.281456,136.456573 82.960808,134.341736 
	C83.619904,134.382919 84.245331,134.764404 84.931847,135.439056 
	C82.898491,138.462402 80.804054,141.192596 78.389877,144.060928 
z"/>
<path fill="#7A0808" opacity="1.000000" stroke="none" 
	d="
M88.084923,126.707741 
	C87.018097,126.396614 86.093246,125.788063 85.168388,125.179520 
	C86.084167,124.746437 86.999947,124.313339 88.116554,124.175018 
	C88.287224,125.116638 88.257057,125.763481 88.084923,126.707741 
z"/>
<path fill="#82100F" opacity="1.000000" stroke="none" 
	d="
M86.678772,112.691116 
	C87.317146,112.605217 88.104256,112.668091 88.404922,112.935295 
	C87.655746,113.137077 87.393005,113.134537 87.130264,113.132004 
	C87.130264,113.132004 86.827492,112.839882 86.678772,112.691116 
z"/>
<path fill="#7A0808" opacity="1.000000" stroke="none" 
	d="
M88.204765,117.409096 
	C88.160843,118.223915 88.091614,119.048790 88.022392,119.873665 
	C87.776474,119.831543 87.530556,119.789413 87.284630,119.747284 
	C87.448921,119.159752 87.613205,118.572212 87.971344,117.673416 
	C88.165207,117.362160 88.179459,117.419151 88.204765,117.409096 
z"/>
<path fill="#7A0808" opacity="1.000000" stroke="none" 
	d="
M87.148315,113.479813 
	C87.393005,113.134537 87.655746,113.137077 88.310684,113.180984 
	C88.760979,113.626686 88.819069,114.031036 88.792740,114.734009 
	C88.194336,114.630959 87.680351,114.229294 87.148315,113.479813 
z"/>
</svg>